<mxfile host="app.diagrams.net" modified="2023-12-16T18:26:39.449Z" agent="Mozilla/5.0 (Windows NT 10.0; Win64; x64) AppleWebKit/537.36 (KHTML, like Gecko) Chrome/120.0.0.0 Safari/537.36" etag="Y9U748Y5lJWZS_MURS6u" version="22.1.11" type="github">
  <diagram name="Page-1" id="42789a77-a242-8287-6e28-9cd8cfd52e62">
    <mxGraphModel dx="1502" dy="522" grid="1" gridSize="10" guides="1" tooltips="1" connect="1" arrows="1" fold="1" page="1" pageScale="1" pageWidth="1100" pageHeight="850" background="none" math="0" shadow="0">
      <root>
        <mxCell id="0" />
        <mxCell id="1" parent="0" />
        <mxCell id="1ea317790d2ca983-2" value="&lt;span&gt;B&lt;/span&gt;" style="ellipse;whiteSpace=wrap;html=1;rounded=0;shadow=1;comic=0;labelBackgroundColor=none;strokeWidth=1;fontFamily=Verdana;fontSize=12;align=center;strokeColor=#FF9999;fillColor=#FFCCCC;" parent="1" vertex="1">
          <mxGeometry x="350" y="190" width="75" height="50" as="geometry" />
        </mxCell>
        <mxCell id="1ea317790d2ca983-3" value="&lt;span&gt;C&lt;/span&gt;" style="ellipse;whiteSpace=wrap;html=1;rounded=0;shadow=1;comic=0;labelBackgroundColor=none;strokeWidth=1;fontFamily=Verdana;fontSize=12;align=center;strokeColor=#FF9999;fillColor=#FFCCCC;" parent="1" vertex="1">
          <mxGeometry x="490" y="190" width="75" height="50" as="geometry" />
        </mxCell>
        <mxCell id="1ea317790d2ca983-4" value="&lt;span&gt;G&lt;/span&gt;" style="ellipse;whiteSpace=wrap;html=1;rounded=0;shadow=1;comic=0;labelBackgroundColor=none;strokeWidth=1;fontFamily=Verdana;fontSize=12;align=center;strokeColor=#FF9999;fillColor=#FFCCCC;" parent="1" vertex="1">
          <mxGeometry x="490" y="270" width="75" height="50" as="geometry" />
        </mxCell>
        <mxCell id="1ea317790d2ca983-6" value="&lt;span&gt;F&lt;/span&gt;" style="ellipse;whiteSpace=wrap;html=1;rounded=0;shadow=1;comic=0;labelBackgroundColor=none;strokeWidth=1;fontFamily=Verdana;fontSize=12;align=center;strokeColor=#FF9999;fillColor=#FFCCCC;" parent="1" vertex="1">
          <mxGeometry x="350" y="270" width="75" height="50" as="geometry" />
        </mxCell>
        <mxCell id="1ea317790d2ca983-7" value="&lt;span&gt;E&lt;/span&gt;" style="ellipse;whiteSpace=wrap;html=1;rounded=0;shadow=1;comic=0;labelBackgroundColor=none;strokeWidth=1;fontFamily=Verdana;fontSize=12;align=center;strokeColor=#FF9999;fillColor=#FFCCCC;" parent="1" vertex="1">
          <mxGeometry x="220" y="270" width="75" height="50" as="geometry" />
        </mxCell>
        <mxCell id="1ea317790d2ca983-9" value="A" style="ellipse;whiteSpace=wrap;html=1;rounded=0;shadow=1;comic=0;labelBackgroundColor=none;strokeWidth=1;fontFamily=Verdana;fontSize=12;align=center;strokeColor=#FF9999;fillColor=#FFCCCC;" parent="1" vertex="1">
          <mxGeometry x="220" y="190" width="75" height="50" as="geometry" />
        </mxCell>
        <mxCell id="1ea317790d2ca983-10" value="&lt;span&gt;D&lt;/span&gt;" style="ellipse;whiteSpace=wrap;html=1;rounded=0;shadow=1;comic=0;labelBackgroundColor=none;strokeWidth=1;fontFamily=Verdana;fontSize=12;align=center;strokeColor=#FF9999;fillColor=#FFCCCC;" parent="1" vertex="1">
          <mxGeometry x="607.5" y="190" width="75" height="50" as="geometry" />
        </mxCell>
        <mxCell id="1ea317790d2ca983-11" value="&lt;span&gt;H&lt;/span&gt;" style="ellipse;whiteSpace=wrap;html=1;rounded=0;shadow=1;comic=0;labelBackgroundColor=none;strokeWidth=1;fontFamily=Verdana;fontSize=12;align=center;strokeColor=#FF9999;fillColor=#FFCCCC;" parent="1" vertex="1">
          <mxGeometry x="607.5" y="270" width="75" height="50" as="geometry" />
        </mxCell>
        <mxCell id="0HW8AGK5tY-i7U9yJy_T-33" value="&lt;span&gt;Y&lt;/span&gt;" style="ellipse;whiteSpace=wrap;html=1;rounded=0;shadow=1;comic=0;labelBackgroundColor=none;strokeWidth=1;fontFamily=Verdana;fontSize=12;align=center;strokeColor=#9999FF;fillColor=#9999FF;" vertex="1" parent="1">
          <mxGeometry x="500" y="90" width="75" height="50" as="geometry" />
        </mxCell>
        <mxCell id="0HW8AGK5tY-i7U9yJy_T-34" value="X" style="ellipse;whiteSpace=wrap;html=1;rounded=0;shadow=1;comic=0;labelBackgroundColor=none;strokeWidth=1;fontFamily=Verdana;fontSize=12;align=center;strokeColor=#9999FF;fillColor=#9999FF;" vertex="1" parent="1">
          <mxGeometry x="350" y="90" width="75" height="50" as="geometry" />
        </mxCell>
      </root>
    </mxGraphModel>
  </diagram>
</mxfile>
